<svg xmlns="http://www.w3.org/2000/svg" xmlns:xlink="http://www.w3.org/1999/xlink" width="72" zoomAndPan="magnify" viewBox="0 0 54 54" height="72" preserveAspectRatio="xMidYMid meet" version="1.0"><defs><clipPath id="8bfe9122d8"><path d="M 0.492188 0 L 53.507812 0 L 53.507812 53.019531 L 0.492188 53.019531 Z M 0.492188 0 " clip-rule="nonzero"/></clipPath></defs><g clip-path="url(#8bfe9122d8)"><path fill="#000000" d="M 53.507812 26.507812 C 53.507812 27.378906 53.464844 28.242188 53.382812 29.109375 C 53.296875 29.972656 53.167969 30.828125 53 31.679688 C 52.832031 32.53125 52.621094 33.375 52.367188 34.203125 C 52.117188 35.035156 51.824219 35.851562 51.492188 36.652344 C 51.160156 37.457031 50.789062 38.238281 50.378906 39.003906 C 49.96875 39.769531 49.523438 40.515625 49.042969 41.238281 C 48.558594 41.957031 48.042969 42.65625 47.492188 43.328125 C 46.941406 43.996094 46.359375 44.640625 45.746094 45.253906 C 45.132812 45.867188 44.488281 46.449219 43.816406 47 C 43.144531 47.550781 42.449219 48.070312 41.726562 48.550781 C 41.007812 49.03125 40.261719 49.480469 39.496094 49.886719 C 38.730469 50.296875 37.945312 50.667969 37.144531 51 C 36.34375 51.332031 35.527344 51.625 34.695312 51.875 C 33.863281 52.128906 33.023438 52.339844 32.171875 52.507812 C 31.320312 52.679688 30.460938 52.804688 29.597656 52.890625 C 28.734375 52.976562 27.867188 53.019531 27 53.019531 C 26.132812 53.019531 25.265625 52.976562 24.402344 52.890625 C 23.539062 52.804688 22.679688 52.679688 21.828125 52.507812 C 20.976562 52.339844 20.136719 52.128906 19.304688 51.875 C 18.472656 51.625 17.65625 51.332031 16.855469 51 C 16.054688 50.667969 15.269531 50.296875 14.503906 49.886719 C 13.738281 49.480469 12.996094 49.03125 12.273438 48.550781 C 11.550781 48.070312 10.855469 47.550781 10.183594 47 C 9.511719 46.449219 8.871094 45.867188 8.253906 45.253906 C 7.640625 44.640625 7.058594 43.996094 6.507812 43.328125 C 5.957031 42.65625 5.441406 41.957031 4.957031 41.238281 C 4.476562 40.515625 4.03125 39.769531 3.621094 39.003906 C 3.210938 38.238281 2.839844 37.457031 2.507812 36.652344 C 2.175781 35.851562 1.882812 35.035156 1.632812 34.203125 C 1.378906 33.375 1.167969 32.53125 1 31.679688 C 0.832031 30.828125 0.703125 29.972656 0.617188 29.109375 C 0.535156 28.242188 0.492188 27.378906 0.492188 26.507812 C 0.492188 25.640625 0.535156 24.773438 0.617188 23.910156 C 0.703125 23.046875 0.832031 22.1875 1 21.335938 C 1.167969 20.484375 1.378906 19.644531 1.632812 18.8125 C 1.882812 17.984375 2.175781 17.167969 2.507812 16.363281 C 2.839844 15.5625 3.210938 14.777344 3.621094 14.011719 C 4.03125 13.246094 4.476562 12.503906 4.957031 11.78125 C 5.441406 11.058594 5.957031 10.363281 6.507812 9.691406 C 7.058594 9.019531 7.640625 8.378906 8.253906 7.765625 C 8.871094 7.152344 9.511719 6.566406 10.183594 6.015625 C 10.855469 5.464844 11.550781 4.949219 12.273438 4.46875 C 12.996094 3.984375 13.738281 3.539062 14.503906 3.128906 C 15.269531 2.722656 16.054688 2.351562 16.855469 2.019531 C 17.65625 1.6875 18.472656 1.394531 19.304688 1.140625 C 20.136719 0.890625 20.976562 0.679688 21.828125 0.507812 C 22.679688 0.339844 23.539062 0.210938 24.402344 0.128906 C 25.265625 0.0429688 26.132812 0 27 0 C 27.867188 0 28.734375 0.0429688 29.597656 0.128906 C 30.460938 0.210938 31.320312 0.339844 32.171875 0.507812 C 33.023438 0.679688 33.863281 0.890625 34.695312 1.140625 C 35.527344 1.394531 36.34375 1.6875 37.144531 2.019531 C 37.945312 2.351562 38.730469 2.722656 39.496094 3.128906 C 40.261719 3.539062 41.007812 3.984375 41.726562 4.46875 C 42.449219 4.949219 43.144531 5.464844 43.816406 6.015625 C 44.488281 6.566406 45.132812 7.152344 45.746094 7.765625 C 46.359375 8.378906 46.941406 9.019531 47.492188 9.691406 C 48.042969 10.363281 48.558594 11.058594 49.042969 11.78125 C 49.523438 12.503906 49.96875 13.246094 50.378906 14.011719 C 50.789062 14.777344 51.160156 15.5625 51.492188 16.363281 C 51.824219 17.167969 52.117188 17.984375 52.367188 18.8125 C 52.621094 19.644531 52.832031 20.484375 53 21.335938 C 53.167969 22.1875 53.296875 23.046875 53.382812 23.910156 C 53.464844 24.773438 53.507812 25.640625 53.507812 26.507812 Z M 53.507812 26.507812 " fill-opacity="1" fill-rule="nonzero"/></g><path fill="#ffffff" d="M 39.53125 20.226562 L 21.507812 20.226562 C 21.246094 20.226562 21.023438 20.132812 20.839844 19.949219 C 20.65625 19.765625 20.5625 19.542969 20.5625 19.285156 L 20.5625 17.4375 C 20.5625 17.175781 20.65625 16.953125 20.839844 16.769531 C 21.023438 16.585938 21.246094 16.496094 21.507812 16.496094 L 39.53125 16.496094 C 39.792969 16.496094 40.015625 16.585938 40.199219 16.769531 C 40.382812 16.953125 40.476562 17.175781 40.476562 17.4375 L 40.476562 19.285156 C 40.476562 19.542969 40.382812 19.765625 40.199219 19.949219 C 40.015625 20.132812 39.792969 20.226562 39.53125 20.226562 Z M 39.53125 20.226562 " fill-opacity="1" fill-rule="nonzero"/><path fill="#ffffff" d="M 39.53125 28.375 L 21.507812 28.375 C 21.246094 28.375 21.023438 28.28125 20.839844 28.097656 C 20.65625 27.914062 20.5625 27.691406 20.5625 27.433594 L 20.5625 25.585938 C 20.5625 25.324219 20.65625 25.101562 20.839844 24.917969 C 21.023438 24.734375 21.246094 24.644531 21.507812 24.644531 L 39.53125 24.644531 C 39.792969 24.644531 40.015625 24.734375 40.199219 24.917969 C 40.382812 25.101562 40.476562 25.324219 40.476562 25.585938 L 40.476562 27.433594 C 40.476562 27.691406 40.382812 27.914062 40.199219 28.097656 C 40.015625 28.28125 39.792969 28.375 39.53125 28.375 Z M 39.53125 28.375 " fill-opacity="1" fill-rule="nonzero"/><path fill="#ffffff" d="M 39.53125 36.523438 L 21.507812 36.523438 C 21.246094 36.523438 21.023438 36.433594 20.839844 36.246094 C 20.65625 36.0625 20.5625 35.839844 20.5625 35.582031 L 20.5625 33.734375 C 20.5625 33.472656 20.65625 33.253906 20.839844 33.066406 C 21.023438 32.882812 21.246094 32.792969 21.507812 32.792969 L 39.53125 32.792969 C 39.792969 32.792969 40.015625 32.882812 40.199219 33.066406 C 40.382812 33.253906 40.476562 33.472656 40.476562 33.734375 L 40.476562 35.582031 C 40.476562 35.839844 40.382812 36.0625 40.199219 36.246094 C 40.015625 36.433594 39.792969 36.523438 39.53125 36.523438 Z M 39.53125 36.523438 " fill-opacity="1" fill-rule="nonzero"/><path fill="#ffffff" d="M 17.359375 18.359375 C 17.359375 18.613281 17.308594 18.859375 17.210938 19.09375 C 17.117188 19.328125 16.976562 19.535156 16.796875 19.714844 C 16.617188 19.894531 16.410156 20.035156 16.175781 20.132812 C 15.941406 20.230469 15.695312 20.277344 15.441406 20.277344 C 15.1875 20.277344 14.941406 20.230469 14.707031 20.132812 C 14.472656 20.035156 14.265625 19.894531 14.085938 19.714844 C 13.90625 19.535156 13.769531 19.328125 13.671875 19.09375 C 13.574219 18.859375 13.523438 18.613281 13.523438 18.359375 C 13.523438 18.105469 13.574219 17.863281 13.671875 17.625 C 13.769531 17.390625 13.90625 17.183594 14.085938 17.003906 C 14.265625 16.824219 14.472656 16.6875 14.707031 16.589844 C 14.941406 16.492188 15.1875 16.445312 15.441406 16.445312 C 15.695312 16.445312 15.941406 16.492188 16.175781 16.589844 C 16.410156 16.6875 16.617188 16.824219 16.796875 17.003906 C 16.976562 17.183594 17.117188 17.390625 17.210938 17.625 C 17.308594 17.863281 17.359375 18.105469 17.359375 18.359375 Z M 17.359375 18.359375 " fill-opacity="1" fill-rule="nonzero"/><path fill="#ffffff" d="M 17.359375 26.507812 C 17.359375 26.761719 17.308594 27.007812 17.210938 27.242188 C 17.117188 27.476562 16.976562 27.683594 16.796875 27.863281 C 16.617188 28.042969 16.410156 28.183594 16.175781 28.28125 C 15.941406 28.378906 15.695312 28.425781 15.441406 28.425781 C 15.1875 28.425781 14.941406 28.378906 14.707031 28.28125 C 14.472656 28.183594 14.265625 28.042969 14.085938 27.863281 C 13.90625 27.683594 13.769531 27.476562 13.671875 27.242188 C 13.574219 27.007812 13.523438 26.761719 13.523438 26.507812 C 13.523438 26.253906 13.574219 26.011719 13.671875 25.777344 C 13.769531 25.539062 13.90625 25.332031 14.085938 25.152344 C 14.265625 24.972656 14.472656 24.835938 14.707031 24.738281 C 14.941406 24.640625 15.1875 24.59375 15.441406 24.59375 C 15.695312 24.59375 15.941406 24.640625 16.175781 24.738281 C 16.410156 24.835938 16.617188 24.972656 16.796875 25.152344 C 16.976562 25.332031 17.117188 25.539062 17.210938 25.777344 C 17.308594 26.011719 17.359375 26.253906 17.359375 26.507812 Z M 17.359375 26.507812 " fill-opacity="1" fill-rule="nonzero"/><path fill="#ffffff" d="M 17.359375 34.65625 C 17.359375 34.914062 17.308594 35.15625 17.210938 35.390625 C 17.117188 35.625 16.976562 35.832031 16.796875 36.011719 C 16.617188 36.191406 16.410156 36.332031 16.175781 36.429688 C 15.941406 36.527344 15.695312 36.574219 15.441406 36.574219 C 15.1875 36.574219 14.941406 36.527344 14.707031 36.429688 C 14.472656 36.332031 14.265625 36.191406 14.085938 36.011719 C 13.90625 35.832031 13.769531 35.625 13.671875 35.390625 C 13.574219 35.15625 13.523438 34.914062 13.523438 34.65625 C 13.523438 34.402344 13.574219 34.160156 13.671875 33.925781 C 13.769531 33.691406 13.90625 33.480469 14.085938 33.300781 C 14.265625 33.121094 14.472656 32.984375 14.707031 32.886719 C 14.941406 32.789062 15.1875 32.742188 15.441406 32.742188 C 15.695312 32.742188 15.941406 32.789062 16.175781 32.886719 C 16.410156 32.984375 16.617188 33.121094 16.796875 33.300781 C 16.976562 33.480469 17.117188 33.691406 17.210938 33.925781 C 17.308594 34.160156 17.359375 34.402344 17.359375 34.65625 Z M 17.359375 34.65625 " fill-opacity="1" fill-rule="nonzero"/></svg>