<svg xmlns="http://www.w3.org/2000/svg" xmlns:xlink="http://www.w3.org/1999/xlink" width="1080" zoomAndPan="magnify" viewBox="0 0 810 809.999993" height="1080" preserveAspectRatio="xMidYMid meet" version="1.0"><defs><clipPath id="6a5a8296be"><path d="M 810 405 C 810 411.628906 809.835938 418.253906 809.511719 424.871094 C 809.1875 431.492188 808.699219 438.101562 808.050781 444.695312 C 807.398438 451.292969 806.589844 457.871094 805.617188 464.425781 C 804.644531 470.980469 803.511719 477.511719 802.21875 484.011719 C 800.925781 490.511719 799.472656 496.976562 797.863281 503.40625 C 796.253906 509.835938 794.484375 516.222656 792.5625 522.566406 C 790.636719 528.90625 788.558594 535.199219 786.324219 541.441406 C 784.09375 547.679688 781.707031 553.863281 779.171875 559.988281 C 776.632812 566.109375 773.949219 572.167969 771.117188 578.160156 C 768.28125 584.152344 765.300781 590.070312 762.179688 595.914062 C 759.054688 601.761719 755.789062 607.527344 752.378906 613.210938 C 748.972656 618.898438 745.425781 624.496094 741.746094 630.007812 C 738.0625 635.515625 734.246094 640.933594 730.300781 646.257812 C 726.351562 651.582031 722.273438 656.804688 718.070312 661.929688 C 713.863281 667.054688 709.535156 672.070312 705.085938 676.980469 C 700.632812 681.890625 696.066406 686.691406 691.378906 691.378906 C 686.691406 696.066406 681.890625 700.632812 676.980469 705.085938 C 672.070312 709.535156 667.054688 713.863281 661.929688 718.070312 C 656.804688 722.273438 651.582031 726.351562 646.257812 730.300781 C 640.933594 734.246094 635.515625 738.0625 630.003906 741.746094 C 624.496094 745.425781 618.898438 748.972656 613.210938 752.378906 C 607.527344 755.789062 601.761719 759.054688 595.914062 762.179688 C 590.070312 765.300781 584.152344 768.28125 578.160156 771.117188 C 572.167969 773.949219 566.109375 776.632812 559.988281 779.171875 C 553.863281 781.707031 547.679688 784.09375 541.441406 786.324219 C 535.199219 788.558594 528.90625 790.636719 522.566406 792.5625 C 516.222656 794.484375 509.835938 796.253906 503.40625 797.863281 C 496.976562 799.472656 490.511719 800.925781 484.011719 802.21875 C 477.511719 803.511719 470.980469 804.644531 464.425781 805.617188 C 457.871094 806.589844 451.292969 807.398438 444.695312 808.050781 C 438.101562 808.699219 431.492188 809.1875 424.871094 809.511719 C 418.253906 809.835938 411.628906 810 405 810 C 398.371094 810 391.746094 809.835938 385.128906 809.511719 C 378.507812 809.1875 371.898438 808.699219 365.304688 808.050781 C 358.707031 807.398438 352.128906 806.589844 345.574219 805.617188 C 339.019531 804.644531 332.488281 803.511719 325.988281 802.21875 C 319.488281 800.925781 313.023438 799.472656 306.59375 797.863281 C 300.164062 796.253906 293.777344 794.484375 287.433594 792.5625 C 281.09375 790.636719 274.800781 788.558594 268.558594 786.324219 C 262.320312 784.09375 256.136719 781.707031 250.011719 779.171875 C 243.890625 776.632812 237.832031 773.949219 231.839844 771.117188 C 225.847656 768.28125 219.929688 765.300781 214.085938 762.179688 C 208.238281 759.054688 202.472656 755.789062 196.789062 752.378906 C 191.101562 748.972656 185.503906 745.425781 179.992188 741.746094 C 174.484375 738.0625 169.066406 734.246094 163.742188 730.300781 C 158.417969 726.351562 153.195312 722.273438 148.070312 718.070312 C 142.945312 713.863281 137.929688 709.535156 133.019531 705.085938 C 128.109375 700.632812 123.308594 696.066406 118.621094 691.378906 C 113.933594 686.691406 109.367188 681.890625 104.914062 676.980469 C 100.464844 672.070312 96.136719 667.054688 91.929688 661.929688 C 87.726562 656.804688 83.648438 651.582031 79.699219 646.257812 C 75.753906 640.933594 71.9375 635.515625 68.253906 630.007812 C 64.574219 624.496094 61.027344 618.898438 57.621094 613.210938 C 54.210938 607.527344 50.945312 601.761719 47.820312 595.914062 C 44.699219 590.070312 41.71875 584.152344 38.882812 578.160156 C 36.050781 572.167969 33.367188 566.109375 30.828125 559.988281 C 28.292969 553.863281 25.90625 547.679688 23.675781 541.441406 C 21.441406 535.199219 19.363281 528.90625 17.4375 522.566406 C 15.515625 516.222656 13.746094 509.835938 12.136719 503.40625 C 10.527344 496.976562 9.074219 490.511719 7.78125 484.011719 C 6.488281 477.511719 5.355469 470.980469 4.382812 464.425781 C 3.410156 457.871094 2.601562 451.292969 1.949219 444.695312 C 1.300781 438.101562 0.8125 431.492188 0.488281 424.871094 C 0.164062 418.253906 0 411.628906 0 405 C 0 398.371094 0.164062 391.746094 0.488281 385.128906 C 0.8125 378.507812 1.300781 371.898438 1.949219 365.304688 C 2.601562 358.707031 3.410156 352.128906 4.382812 345.574219 C 5.355469 339.019531 6.488281 332.488281 7.78125 325.988281 C 9.074219 319.488281 10.527344 313.023438 12.136719 306.59375 C 13.746094 300.164062 15.515625 293.777344 17.4375 287.433594 C 19.363281 281.09375 21.441406 274.800781 23.675781 268.558594 C 25.90625 262.320312 28.292969 256.136719 30.828125 250.011719 C 33.367188 243.890625 36.050781 237.832031 38.882812 231.839844 C 41.71875 225.847656 44.699219 219.929688 47.820312 214.085938 C 50.945312 208.238281 54.210938 202.472656 57.621094 196.789062 C 61.027344 191.101562 64.574219 185.503906 68.253906 179.992188 C 71.9375 174.484375 75.753906 169.066406 79.699219 163.742188 C 83.648438 158.417969 87.726562 153.195312 91.929688 148.070312 C 96.136719 142.945312 100.464844 137.929688 104.914062 133.019531 C 109.367188 128.109375 113.933594 123.308594 118.621094 118.621094 C 123.308594 113.933594 128.109375 109.367188 133.019531 104.914062 C 137.929688 100.464844 142.945312 96.136719 148.070312 91.929688 C 153.195312 87.726562 158.417969 83.648438 163.742188 79.699219 C 169.066406 75.753906 174.484375 71.9375 179.992188 68.253906 C 185.503906 64.574219 191.101562 61.027344 196.789062 57.621094 C 202.472656 54.210938 208.238281 50.945312 214.085938 47.820312 C 219.929688 44.699219 225.847656 41.71875 231.839844 38.882812 C 237.832031 36.050781 243.890625 33.367188 250.011719 30.828125 C 256.136719 28.292969 262.320312 25.90625 268.558594 23.675781 C 274.800781 21.441406 281.09375 19.363281 287.433594 17.4375 C 293.777344 15.515625 300.164062 13.746094 306.59375 12.136719 C 313.023438 10.527344 319.488281 9.074219 325.988281 7.78125 C 332.488281 6.488281 339.019531 5.355469 345.574219 4.382812 C 352.128906 3.410156 358.707031 2.601562 365.304688 1.949219 C 371.898438 1.300781 378.507812 0.8125 385.128906 0.488281 C 391.746094 0.164062 398.371094 0 405 0 C 411.628906 0 418.253906 0.164062 424.871094 0.488281 C 431.492188 0.8125 438.101562 1.300781 444.695312 1.949219 C 451.292969 2.601562 457.871094 3.410156 464.425781 4.382812 C 470.980469 5.355469 477.511719 6.488281 484.011719 7.78125 C 490.511719 9.074219 496.976562 10.527344 503.40625 12.136719 C 509.835938 13.746094 516.222656 15.515625 522.566406 17.4375 C 528.90625 19.363281 535.199219 21.441406 541.441406 23.675781 C 547.679688 25.90625 553.863281 28.292969 559.988281 30.828125 C 566.109375 33.367188 572.167969 36.050781 578.160156 38.882812 C 584.152344 41.71875 590.070312 44.699219 595.914062 47.820312 C 601.761719 50.945312 607.527344 54.210938 613.210938 57.621094 C 618.898438 61.027344 624.496094 64.574219 630.003906 68.253906 C 635.515625 71.9375 640.933594 75.753906 646.257812 79.699219 C 651.582031 83.648438 656.804688 87.726562 661.929688 91.929688 C 667.054688 96.136719 672.070312 100.464844 676.980469 104.914062 C 681.890625 109.367188 686.691406 113.933594 691.378906 118.621094 C 696.066406 123.308594 700.632812 128.109375 705.085938 133.019531 C 709.535156 137.929688 713.863281 142.945312 718.070312 148.070312 C 722.273438 153.195312 726.351562 158.417969 730.300781 163.742188 C 734.246094 169.066406 738.0625 174.484375 741.746094 179.992188 C 745.425781 185.503906 748.972656 191.101562 752.378906 196.789062 C 755.789062 202.472656 759.054688 208.238281 762.179688 214.085938 C 765.300781 219.929688 768.28125 225.847656 771.117188 231.839844 C 773.949219 237.832031 776.632812 243.890625 779.171875 250.011719 C 781.707031 256.136719 784.09375 262.320312 786.324219 268.558594 C 788.558594 274.800781 790.636719 281.09375 792.5625 287.433594 C 794.484375 293.777344 796.253906 300.164062 797.863281 306.59375 C 799.472656 313.023438 800.925781 319.488281 802.21875 325.988281 C 803.511719 332.488281 804.644531 339.019531 805.617188 345.574219 C 806.589844 352.128906 807.398438 358.707031 808.050781 365.304688 C 808.699219 371.898438 809.1875 378.507812 809.511719 385.128906 C 809.835938 391.746094 810 398.371094 810 405 Z M 810 405 " clip-rule="nonzero"/></clipPath><linearGradient x1="0" gradientTransform="matrix(0.952941, 0, 0, 0.952941, 0.0000035, 0.00002)" y1="425" x2="849.999961" gradientUnits="userSpaceOnUse" y2="425" id="d804c00f33"><stop stop-opacity="1" stop-color="rgb(94.119263%, 44.309998%, 67.059326%)" offset="0"/><stop stop-opacity="1" stop-color="rgb(93.803406%, 44.398499%, 67.14325%)" offset="0.00390625"/><stop stop-opacity="1" stop-color="rgb(93.487549%, 44.487%, 67.227173%)" offset="0.0078125"/><stop stop-opacity="1" stop-color="rgb(93.171692%, 44.5755%, 67.311096%)" offset="0.0117188"/><stop stop-opacity="1" stop-color="rgb(92.857361%, 44.664001%, 67.396545%)" offset="0.015625"/><stop stop-opacity="1" stop-color="rgb(92.541504%, 44.752502%, 67.480469%)" offset="0.0195312"/><stop stop-opacity="1" stop-color="rgb(92.225647%, 44.842529%, 67.564392%)" offset="0.0234375"/><stop stop-opacity="1" stop-color="rgb(91.90979%, 44.93103%, 67.648315%)" offset="0.0273438"/><stop stop-opacity="1" stop-color="rgb(91.593933%, 45.019531%, 67.733765%)" offset="0.03125"/><stop stop-opacity="1" stop-color="rgb(91.278076%, 45.108032%, 67.817688%)" offset="0.0351563"/><stop stop-opacity="1" stop-color="rgb(90.963745%, 45.198059%, 67.901611%)" offset="0.0390625"/><stop stop-opacity="1" stop-color="rgb(90.647888%, 45.28656%, 67.985535%)" offset="0.0429688"/><stop stop-opacity="1" stop-color="rgb(90.332031%, 45.375061%, 68.070984%)" offset="0.046875"/><stop stop-opacity="1" stop-color="rgb(90.016174%, 45.463562%, 68.154907%)" offset="0.0507812"/><stop stop-opacity="1" stop-color="rgb(89.700317%, 45.553589%, 68.238831%)" offset="0.0546875"/><stop stop-opacity="1" stop-color="rgb(89.38446%, 45.64209%, 68.322754%)" offset="0.0585938"/><stop stop-opacity="1" stop-color="rgb(89.070129%, 45.730591%, 68.406677%)" offset="0.0625"/><stop stop-opacity="1" stop-color="rgb(88.754272%, 45.819092%, 68.490601%)" offset="0.0664062"/><stop stop-opacity="1" stop-color="rgb(88.438416%, 45.909119%, 68.57605%)" offset="0.0703125"/><stop stop-opacity="1" stop-color="rgb(88.122559%, 45.99762%, 68.659973%)" offset="0.0742188"/><stop stop-opacity="1" stop-color="rgb(87.806702%, 46.086121%, 68.743896%)" offset="0.078125"/><stop stop-opacity="1" stop-color="rgb(87.490845%, 46.174622%, 68.82782%)" offset="0.0820312"/><stop stop-opacity="1" stop-color="rgb(87.176514%, 46.264648%, 68.913269%)" offset="0.0859375"/><stop stop-opacity="1" stop-color="rgb(86.860657%, 46.353149%, 68.997192%)" offset="0.0898438"/><stop stop-opacity="1" stop-color="rgb(86.5448%, 46.44165%, 69.081116%)" offset="0.09375"/><stop stop-opacity="1" stop-color="rgb(86.228943%, 46.530151%, 69.165039%)" offset="0.0976563"/><stop stop-opacity="1" stop-color="rgb(85.914612%, 46.620178%, 69.250488%)" offset="0.101562"/><stop stop-opacity="1" stop-color="rgb(85.598755%, 46.708679%, 69.334412%)" offset="0.105469"/><stop stop-opacity="1" stop-color="rgb(85.282898%, 46.79718%, 69.418335%)" offset="0.109375"/><stop stop-opacity="1" stop-color="rgb(84.967041%, 46.885681%, 69.502258%)" offset="0.113281"/><stop stop-opacity="1" stop-color="rgb(84.651184%, 46.975708%, 69.587708%)" offset="0.117188"/><stop stop-opacity="1" stop-color="rgb(84.335327%, 47.064209%, 69.671631%)" offset="0.121094"/><stop stop-opacity="1" stop-color="rgb(84.020996%, 47.15271%, 69.755554%)" offset="0.125"/><stop stop-opacity="1" stop-color="rgb(83.705139%, 47.241211%, 69.839478%)" offset="0.128906"/><stop stop-opacity="1" stop-color="rgb(83.389282%, 47.331238%, 69.923401%)" offset="0.132812"/><stop stop-opacity="1" stop-color="rgb(83.073425%, 47.419739%, 70.007324%)" offset="0.136719"/><stop stop-opacity="1" stop-color="rgb(82.757568%, 47.50824%, 70.092773%)" offset="0.140625"/><stop stop-opacity="1" stop-color="rgb(82.441711%, 47.596741%, 70.176697%)" offset="0.144531"/><stop stop-opacity="1" stop-color="rgb(82.12738%, 47.686768%, 70.26062%)" offset="0.148438"/><stop stop-opacity="1" stop-color="rgb(81.811523%, 47.775269%, 70.344543%)" offset="0.152344"/><stop stop-opacity="1" stop-color="rgb(81.495667%, 47.86377%, 70.429993%)" offset="0.15625"/><stop stop-opacity="1" stop-color="rgb(81.17981%, 47.952271%, 70.513916%)" offset="0.160156"/><stop stop-opacity="1" stop-color="rgb(80.863953%, 48.042297%, 70.597839%)" offset="0.164062"/><stop stop-opacity="1" stop-color="rgb(80.548096%, 48.130798%, 70.681763%)" offset="0.167969"/><stop stop-opacity="1" stop-color="rgb(80.233765%, 48.219299%, 70.767212%)" offset="0.171875"/><stop stop-opacity="1" stop-color="rgb(79.917908%, 48.3078%, 70.851135%)" offset="0.175781"/><stop stop-opacity="1" stop-color="rgb(79.602051%, 48.397827%, 70.935059%)" offset="0.179687"/><stop stop-opacity="1" stop-color="rgb(79.286194%, 48.486328%, 71.018982%)" offset="0.183594"/><stop stop-opacity="1" stop-color="rgb(78.970337%, 48.574829%, 71.102905%)" offset="0.1875"/><stop stop-opacity="1" stop-color="rgb(78.65448%, 48.66333%, 71.186829%)" offset="0.191406"/><stop stop-opacity="1" stop-color="rgb(78.340149%, 48.753357%, 71.272278%)" offset="0.195312"/><stop stop-opacity="1" stop-color="rgb(78.024292%, 48.841858%, 71.356201%)" offset="0.199219"/><stop stop-opacity="1" stop-color="rgb(77.708435%, 48.930359%, 71.440125%)" offset="0.203125"/><stop stop-opacity="1" stop-color="rgb(77.392578%, 49.01886%, 71.524048%)" offset="0.207031"/><stop stop-opacity="1" stop-color="rgb(77.078247%, 49.107361%, 71.609497%)" offset="0.210937"/><stop stop-opacity="1" stop-color="rgb(76.76239%, 49.195862%, 71.69342%)" offset="0.214844"/><stop stop-opacity="1" stop-color="rgb(76.446533%, 49.285889%, 71.777344%)" offset="0.21875"/><stop stop-opacity="1" stop-color="rgb(76.130676%, 49.37439%, 71.861267%)" offset="0.222656"/><stop stop-opacity="1" stop-color="rgb(75.814819%, 49.462891%, 71.946716%)" offset="0.226562"/><stop stop-opacity="1" stop-color="rgb(75.498962%, 49.551392%, 72.03064%)" offset="0.230469"/><stop stop-opacity="1" stop-color="rgb(75.184631%, 49.641418%, 72.114563%)" offset="0.234375"/><stop stop-opacity="1" stop-color="rgb(74.868774%, 49.729919%, 72.198486%)" offset="0.238281"/><stop stop-opacity="1" stop-color="rgb(74.552917%, 49.81842%, 72.283936%)" offset="0.242187"/><stop stop-opacity="1" stop-color="rgb(74.237061%, 49.906921%, 72.367859%)" offset="0.246094"/><stop stop-opacity="1" stop-color="rgb(73.921204%, 49.996948%, 72.451782%)" offset="0.25"/><stop stop-opacity="1" stop-color="rgb(73.605347%, 50.085449%, 72.535706%)" offset="0.253906"/><stop stop-opacity="1" stop-color="rgb(73.291016%, 50.17395%, 72.619629%)" offset="0.257812"/><stop stop-opacity="1" stop-color="rgb(72.975159%, 50.262451%, 72.703552%)" offset="0.261719"/><stop stop-opacity="1" stop-color="rgb(72.659302%, 50.352478%, 72.789001%)" offset="0.265625"/><stop stop-opacity="1" stop-color="rgb(72.343445%, 50.440979%, 72.872925%)" offset="0.269531"/><stop stop-opacity="1" stop-color="rgb(72.027588%, 50.52948%, 72.956848%)" offset="0.273438"/><stop stop-opacity="1" stop-color="rgb(71.711731%, 50.617981%, 73.040771%)" offset="0.277344"/><stop stop-opacity="1" stop-color="rgb(71.3974%, 50.708008%, 73.126221%)" offset="0.28125"/><stop stop-opacity="1" stop-color="rgb(71.081543%, 50.796509%, 73.210144%)" offset="0.285156"/><stop stop-opacity="1" stop-color="rgb(70.765686%, 50.88501%, 73.294067%)" offset="0.289062"/><stop stop-opacity="1" stop-color="rgb(70.449829%, 50.973511%, 73.377991%)" offset="0.292969"/><stop stop-opacity="1" stop-color="rgb(70.133972%, 51.063538%, 73.46344%)" offset="0.296875"/><stop stop-opacity="1" stop-color="rgb(69.818115%, 51.152039%, 73.547363%)" offset="0.300781"/><stop stop-opacity="1" stop-color="rgb(69.503784%, 51.24054%, 73.631287%)" offset="0.304687"/><stop stop-opacity="1" stop-color="rgb(69.187927%, 51.329041%, 73.71521%)" offset="0.308594"/><stop stop-opacity="1" stop-color="rgb(68.87207%, 51.419067%, 73.799133%)" offset="0.3125"/><stop stop-opacity="1" stop-color="rgb(68.556213%, 51.507568%, 73.883057%)" offset="0.316406"/><stop stop-opacity="1" stop-color="rgb(68.241882%, 51.596069%, 73.968506%)" offset="0.320312"/><stop stop-opacity="1" stop-color="rgb(67.926025%, 51.68457%, 74.052429%)" offset="0.324219"/><stop stop-opacity="1" stop-color="rgb(67.610168%, 51.774597%, 74.136353%)" offset="0.328125"/><stop stop-opacity="1" stop-color="rgb(67.294312%, 51.863098%, 74.220276%)" offset="0.332031"/><stop stop-opacity="1" stop-color="rgb(66.978455%, 51.951599%, 74.305725%)" offset="0.335937"/><stop stop-opacity="1" stop-color="rgb(66.662598%, 52.0401%, 74.389648%)" offset="0.339844"/><stop stop-opacity="1" stop-color="rgb(66.348267%, 52.130127%, 74.473572%)" offset="0.34375"/><stop stop-opacity="1" stop-color="rgb(66.03241%, 52.218628%, 74.557495%)" offset="0.347656"/><stop stop-opacity="1" stop-color="rgb(65.716553%, 52.307129%, 74.642944%)" offset="0.351562"/><stop stop-opacity="1" stop-color="rgb(65.400696%, 52.39563%, 74.726868%)" offset="0.355469"/><stop stop-opacity="1" stop-color="rgb(65.084839%, 52.485657%, 74.810791%)" offset="0.359375"/><stop stop-opacity="1" stop-color="rgb(64.768982%, 52.574158%, 74.894714%)" offset="0.363281"/><stop stop-opacity="1" stop-color="rgb(64.454651%, 52.662659%, 74.980164%)" offset="0.367187"/><stop stop-opacity="1" stop-color="rgb(64.138794%, 52.75116%, 75.064087%)" offset="0.371094"/><stop stop-opacity="1" stop-color="rgb(63.822937%, 52.841187%, 75.14801%)" offset="0.375"/><stop stop-opacity="1" stop-color="rgb(63.50708%, 52.929688%, 75.231934%)" offset="0.378906"/><stop stop-opacity="1" stop-color="rgb(63.191223%, 53.018188%, 75.315857%)" offset="0.382812"/><stop stop-opacity="1" stop-color="rgb(62.875366%, 53.106689%, 75.39978%)" offset="0.386719"/><stop stop-opacity="1" stop-color="rgb(62.561035%, 53.196716%, 75.485229%)" offset="0.390625"/><stop stop-opacity="1" stop-color="rgb(62.245178%, 53.285217%, 75.569153%)" offset="0.394531"/><stop stop-opacity="1" stop-color="rgb(61.929321%, 53.373718%, 75.653076%)" offset="0.398438"/><stop stop-opacity="1" stop-color="rgb(61.613464%, 53.462219%, 75.737%)" offset="0.402344"/><stop stop-opacity="1" stop-color="rgb(61.297607%, 53.55072%, 75.822449%)" offset="0.40625"/><stop stop-opacity="1" stop-color="rgb(60.98175%, 53.639221%, 75.906372%)" offset="0.410156"/><stop stop-opacity="1" stop-color="rgb(60.667419%, 53.729248%, 75.990295%)" offset="0.414062"/><stop stop-opacity="1" stop-color="rgb(60.351562%, 53.817749%, 76.074219%)" offset="0.417969"/><stop stop-opacity="1" stop-color="rgb(60.035706%, 53.90625%, 76.159668%)" offset="0.421875"/><stop stop-opacity="1" stop-color="rgb(59.719849%, 53.994751%, 76.243591%)" offset="0.425781"/><stop stop-opacity="1" stop-color="rgb(59.405518%, 54.084778%, 76.327515%)" offset="0.429688"/><stop stop-opacity="1" stop-color="rgb(59.089661%, 54.173279%, 76.411438%)" offset="0.433594"/><stop stop-opacity="1" stop-color="rgb(58.773804%, 54.26178%, 76.495361%)" offset="0.4375"/><stop stop-opacity="1" stop-color="rgb(58.457947%, 54.350281%, 76.579285%)" offset="0.441406"/><stop stop-opacity="1" stop-color="rgb(58.14209%, 54.440308%, 76.664734%)" offset="0.445312"/><stop stop-opacity="1" stop-color="rgb(57.826233%, 54.528809%, 76.748657%)" offset="0.449219"/><stop stop-opacity="1" stop-color="rgb(57.511902%, 54.61731%, 76.832581%)" offset="0.453125"/><stop stop-opacity="1" stop-color="rgb(57.196045%, 54.705811%, 76.916504%)" offset="0.457031"/><stop stop-opacity="1" stop-color="rgb(56.880188%, 54.795837%, 77.001953%)" offset="0.460937"/><stop stop-opacity="1" stop-color="rgb(56.564331%, 54.884338%, 77.085876%)" offset="0.464844"/><stop stop-opacity="1" stop-color="rgb(56.248474%, 54.972839%, 77.1698%)" offset="0.46875"/><stop stop-opacity="1" stop-color="rgb(55.932617%, 55.06134%, 77.253723%)" offset="0.472656"/><stop stop-opacity="1" stop-color="rgb(55.618286%, 55.151367%, 77.339172%)" offset="0.476562"/><stop stop-opacity="1" stop-color="rgb(55.302429%, 55.239868%, 77.423096%)" offset="0.480469"/><stop stop-opacity="1" stop-color="rgb(54.986572%, 55.328369%, 77.507019%)" offset="0.484375"/><stop stop-opacity="1" stop-color="rgb(54.670715%, 55.41687%, 77.590942%)" offset="0.488281"/><stop stop-opacity="1" stop-color="rgb(54.354858%, 55.506897%, 77.676392%)" offset="0.492187"/><stop stop-opacity="1" stop-color="rgb(54.039001%, 55.595398%, 77.760315%)" offset="0.496094"/><stop stop-opacity="1" stop-color="rgb(53.72467%, 55.683899%, 77.844238%)" offset="0.5"/><stop stop-opacity="1" stop-color="rgb(53.408813%, 55.7724%, 77.928162%)" offset="0.503906"/><stop stop-opacity="1" stop-color="rgb(53.092957%, 55.862427%, 78.012085%)" offset="0.507812"/><stop stop-opacity="1" stop-color="rgb(52.7771%, 55.950928%, 78.096008%)" offset="0.511719"/><stop stop-opacity="1" stop-color="rgb(52.461243%, 56.039429%, 78.181458%)" offset="0.515625"/><stop stop-opacity="1" stop-color="rgb(52.145386%, 56.12793%, 78.265381%)" offset="0.519531"/><stop stop-opacity="1" stop-color="rgb(51.831055%, 56.217957%, 78.349304%)" offset="0.523438"/><stop stop-opacity="1" stop-color="rgb(51.515198%, 56.306458%, 78.433228%)" offset="0.527344"/><stop stop-opacity="1" stop-color="rgb(51.199341%, 56.394958%, 78.518677%)" offset="0.53125"/><stop stop-opacity="1" stop-color="rgb(50.883484%, 56.483459%, 78.6026%)" offset="0.535156"/><stop stop-opacity="1" stop-color="rgb(50.567627%, 56.573486%, 78.686523%)" offset="0.539062"/><stop stop-opacity="1" stop-color="rgb(50.25177%, 56.661987%, 78.770447%)" offset="0.542969"/><stop stop-opacity="1" stop-color="rgb(49.937439%, 56.750488%, 78.855896%)" offset="0.546875"/><stop stop-opacity="1" stop-color="rgb(49.621582%, 56.838989%, 78.939819%)" offset="0.550781"/><stop stop-opacity="1" stop-color="rgb(49.305725%, 56.929016%, 79.023743%)" offset="0.554688"/><stop stop-opacity="1" stop-color="rgb(48.989868%, 57.017517%, 79.107666%)" offset="0.558594"/><stop stop-opacity="1" stop-color="rgb(48.675537%, 57.106018%, 79.193115%)" offset="0.5625"/><stop stop-opacity="1" stop-color="rgb(48.35968%, 57.194519%, 79.277039%)" offset="0.566406"/><stop stop-opacity="1" stop-color="rgb(48.043823%, 57.284546%, 79.360962%)" offset="0.570312"/><stop stop-opacity="1" stop-color="rgb(47.727966%, 57.373047%, 79.444885%)" offset="0.574219"/><stop stop-opacity="1" stop-color="rgb(47.412109%, 57.461548%, 79.528809%)" offset="0.578125"/><stop stop-opacity="1" stop-color="rgb(47.096252%, 57.550049%, 79.612732%)" offset="0.582031"/><stop stop-opacity="1" stop-color="rgb(46.781921%, 57.63855%, 79.698181%)" offset="0.585938"/><stop stop-opacity="1" stop-color="rgb(46.466064%, 57.727051%, 79.782104%)" offset="0.589844"/><stop stop-opacity="1" stop-color="rgb(46.150208%, 57.817078%, 79.866028%)" offset="0.59375"/><stop stop-opacity="1" stop-color="rgb(45.834351%, 57.905579%, 79.949951%)" offset="0.597656"/><stop stop-opacity="1" stop-color="rgb(45.518494%, 57.99408%, 80.0354%)" offset="0.601562"/><stop stop-opacity="1" stop-color="rgb(45.202637%, 58.082581%, 80.119324%)" offset="0.605469"/><stop stop-opacity="1" stop-color="rgb(44.888306%, 58.172607%, 80.203247%)" offset="0.609375"/><stop stop-opacity="1" stop-color="rgb(44.572449%, 58.261108%, 80.28717%)" offset="0.613281"/><stop stop-opacity="1" stop-color="rgb(44.256592%, 58.349609%, 80.37262%)" offset="0.617187"/><stop stop-opacity="1" stop-color="rgb(43.940735%, 58.43811%, 80.456543%)" offset="0.621094"/><stop stop-opacity="1" stop-color="rgb(43.624878%, 58.528137%, 80.540466%)" offset="0.625"/><stop stop-opacity="1" stop-color="rgb(43.309021%, 58.616638%, 80.62439%)" offset="0.628906"/><stop stop-opacity="1" stop-color="rgb(42.99469%, 58.705139%, 80.708313%)" offset="0.632812"/><stop stop-opacity="1" stop-color="rgb(42.678833%, 58.79364%, 80.792236%)" offset="0.636719"/><stop stop-opacity="1" stop-color="rgb(42.362976%, 58.883667%, 80.877686%)" offset="0.640625"/><stop stop-opacity="1" stop-color="rgb(42.047119%, 58.972168%, 80.961609%)" offset="0.644531"/><stop stop-opacity="1" stop-color="rgb(41.731262%, 59.060669%, 81.045532%)" offset="0.648438"/><stop stop-opacity="1" stop-color="rgb(41.415405%, 59.14917%, 81.129456%)" offset="0.652344"/><stop stop-opacity="1" stop-color="rgb(41.101074%, 59.239197%, 81.214905%)" offset="0.65625"/><stop stop-opacity="1" stop-color="rgb(40.785217%, 59.327698%, 81.298828%)" offset="0.660156"/><stop stop-opacity="1" stop-color="rgb(40.46936%, 59.416199%, 81.382751%)" offset="0.664062"/><stop stop-opacity="1" stop-color="rgb(40.153503%, 59.5047%, 81.466675%)" offset="0.667969"/><stop stop-opacity="1" stop-color="rgb(39.839172%, 59.594727%, 81.552124%)" offset="0.671875"/><stop stop-opacity="1" stop-color="rgb(39.523315%, 59.683228%, 81.636047%)" offset="0.675781"/><stop stop-opacity="1" stop-color="rgb(39.207458%, 59.771729%, 81.719971%)" offset="0.679688"/><stop stop-opacity="1" stop-color="rgb(38.891602%, 59.860229%, 81.803894%)" offset="0.683594"/><stop stop-opacity="1" stop-color="rgb(38.575745%, 59.950256%, 81.889343%)" offset="0.6875"/><stop stop-opacity="1" stop-color="rgb(38.259888%, 60.038757%, 81.973267%)" offset="0.691406"/><stop stop-opacity="1" stop-color="rgb(37.945557%, 60.127258%, 82.05719%)" offset="0.695312"/><stop stop-opacity="1" stop-color="rgb(37.6297%, 60.215759%, 82.141113%)" offset="0.699219"/><stop stop-opacity="1" stop-color="rgb(37.313843%, 60.305786%, 82.225037%)" offset="0.703125"/><stop stop-opacity="1" stop-color="rgb(36.997986%, 60.394287%, 82.30896%)" offset="0.707031"/><stop stop-opacity="1" stop-color="rgb(36.682129%, 60.482788%, 82.394409%)" offset="0.710938"/><stop stop-opacity="1" stop-color="rgb(36.366272%, 60.571289%, 82.478333%)" offset="0.714844"/><stop stop-opacity="1" stop-color="rgb(36.051941%, 60.661316%, 82.562256%)" offset="0.71875"/><stop stop-opacity="1" stop-color="rgb(35.736084%, 60.749817%, 82.646179%)" offset="0.722656"/><stop stop-opacity="1" stop-color="rgb(35.420227%, 60.838318%, 82.731628%)" offset="0.726562"/><stop stop-opacity="1" stop-color="rgb(35.10437%, 60.926819%, 82.815552%)" offset="0.730469"/><stop stop-opacity="1" stop-color="rgb(34.788513%, 61.016846%, 82.899475%)" offset="0.734375"/><stop stop-opacity="1" stop-color="rgb(34.472656%, 61.105347%, 82.983398%)" offset="0.738281"/><stop stop-opacity="1" stop-color="rgb(34.158325%, 61.193848%, 83.068848%)" offset="0.742188"/><stop stop-opacity="1" stop-color="rgb(33.842468%, 61.282349%, 83.152771%)" offset="0.746094"/><stop stop-opacity="1" stop-color="rgb(33.526611%, 61.372375%, 83.236694%)" offset="0.75"/><stop stop-opacity="1" stop-color="rgb(33.210754%, 61.460876%, 83.320618%)" offset="0.753906"/><stop stop-opacity="1" stop-color="rgb(32.894897%, 61.549377%, 83.404541%)" offset="0.757813"/><stop stop-opacity="1" stop-color="rgb(32.579041%, 61.637878%, 83.488464%)" offset="0.761719"/><stop stop-opacity="1" stop-color="rgb(32.264709%, 61.727905%, 83.573914%)" offset="0.765625"/><stop stop-opacity="1" stop-color="rgb(31.948853%, 61.816406%, 83.657837%)" offset="0.769531"/><stop stop-opacity="1" stop-color="rgb(31.632996%, 61.904907%, 83.74176%)" offset="0.773438"/><stop stop-opacity="1" stop-color="rgb(31.317139%, 61.993408%, 83.825684%)" offset="0.777344"/><stop stop-opacity="1" stop-color="rgb(31.002808%, 62.081909%, 83.911133%)" offset="0.78125"/><stop stop-opacity="1" stop-color="rgb(30.686951%, 62.17041%, 83.995056%)" offset="0.785156"/><stop stop-opacity="1" stop-color="rgb(30.371094%, 62.260437%, 84.078979%)" offset="0.789062"/><stop stop-opacity="1" stop-color="rgb(30.055237%, 62.348938%, 84.162903%)" offset="0.792969"/><stop stop-opacity="1" stop-color="rgb(29.73938%, 62.437439%, 84.248352%)" offset="0.796875"/><stop stop-opacity="1" stop-color="rgb(29.423523%, 62.52594%, 84.332275%)" offset="0.800781"/><stop stop-opacity="1" stop-color="rgb(29.109192%, 62.615967%, 84.416199%)" offset="0.804688"/><stop stop-opacity="1" stop-color="rgb(28.793335%, 62.704468%, 84.500122%)" offset="0.808594"/><stop stop-opacity="1" stop-color="rgb(28.477478%, 62.792969%, 84.585571%)" offset="0.8125"/><stop stop-opacity="1" stop-color="rgb(28.161621%, 62.88147%, 84.669495%)" offset="0.816406"/><stop stop-opacity="1" stop-color="rgb(27.845764%, 62.971497%, 84.753418%)" offset="0.820312"/><stop stop-opacity="1" stop-color="rgb(27.529907%, 63.059998%, 84.837341%)" offset="0.824219"/><stop stop-opacity="1" stop-color="rgb(27.215576%, 63.148499%, 84.921265%)" offset="0.828125"/><stop stop-opacity="1" stop-color="rgb(26.899719%, 63.237%, 85.005188%)" offset="0.832031"/><stop stop-opacity="1" stop-color="rgb(26.583862%, 63.327026%, 85.090637%)" offset="0.835938"/><stop stop-opacity="1" stop-color="rgb(26.268005%, 63.415527%, 85.174561%)" offset="0.839844"/><stop stop-opacity="1" stop-color="rgb(25.952148%, 63.504028%, 85.258484%)" offset="0.84375"/><stop stop-opacity="1" stop-color="rgb(25.636292%, 63.592529%, 85.342407%)" offset="0.847656"/><stop stop-opacity="1" stop-color="rgb(25.32196%, 63.682556%, 85.427856%)" offset="0.851562"/><stop stop-opacity="1" stop-color="rgb(25.006104%, 63.771057%, 85.51178%)" offset="0.855469"/><stop stop-opacity="1" stop-color="rgb(24.690247%, 63.859558%, 85.595703%)" offset="0.859375"/><stop stop-opacity="1" stop-color="rgb(24.37439%, 63.948059%, 85.679626%)" offset="0.863281"/><stop stop-opacity="1" stop-color="rgb(24.058533%, 64.038086%, 85.765076%)" offset="0.867188"/><stop stop-opacity="1" stop-color="rgb(23.742676%, 64.126587%, 85.848999%)" offset="0.871094"/><stop stop-opacity="1" stop-color="rgb(23.428345%, 64.215088%, 85.932922%)" offset="0.875"/><stop stop-opacity="1" stop-color="rgb(23.112488%, 64.303589%, 86.016846%)" offset="0.878906"/><stop stop-opacity="1" stop-color="rgb(22.796631%, 64.393616%, 86.100769%)" offset="0.882812"/><stop stop-opacity="1" stop-color="rgb(22.480774%, 64.482117%, 86.184692%)" offset="0.886719"/><stop stop-opacity="1" stop-color="rgb(22.166443%, 64.570618%, 86.270142%)" offset="0.890625"/><stop stop-opacity="1" stop-color="rgb(21.850586%, 64.659119%, 86.354065%)" offset="0.894531"/><stop stop-opacity="1" stop-color="rgb(21.534729%, 64.749146%, 86.437988%)" offset="0.898438"/><stop stop-opacity="1" stop-color="rgb(21.218872%, 64.837646%, 86.521912%)" offset="0.902344"/><stop stop-opacity="1" stop-color="rgb(20.903015%, 64.926147%, 86.607361%)" offset="0.90625"/><stop stop-opacity="1" stop-color="rgb(20.587158%, 65.014648%, 86.691284%)" offset="0.910156"/><stop stop-opacity="1" stop-color="rgb(20.272827%, 65.104675%, 86.775208%)" offset="0.914062"/><stop stop-opacity="1" stop-color="rgb(19.95697%, 65.193176%, 86.859131%)" offset="0.917969"/><stop stop-opacity="1" stop-color="rgb(19.641113%, 65.281677%, 86.94458%)" offset="0.921875"/><stop stop-opacity="1" stop-color="rgb(19.325256%, 65.370178%, 87.028503%)" offset="0.925781"/><stop stop-opacity="1" stop-color="rgb(19.009399%, 65.460205%, 87.112427%)" offset="0.929687"/><stop stop-opacity="1" stop-color="rgb(18.693542%, 65.548706%, 87.19635%)" offset="0.933594"/><stop stop-opacity="1" stop-color="rgb(18.379211%, 65.637207%, 87.281799%)" offset="0.9375"/><stop stop-opacity="1" stop-color="rgb(18.063354%, 65.725708%, 87.365723%)" offset="0.941406"/><stop stop-opacity="1" stop-color="rgb(17.747498%, 65.815735%, 87.449646%)" offset="0.945312"/><stop stop-opacity="1" stop-color="rgb(17.431641%, 65.904236%, 87.533569%)" offset="0.949219"/><stop stop-opacity="1" stop-color="rgb(17.115784%, 65.992737%, 87.617493%)" offset="0.953125"/><stop stop-opacity="1" stop-color="rgb(16.799927%, 66.081238%, 87.701416%)" offset="0.957031"/><stop stop-opacity="1" stop-color="rgb(16.485596%, 66.171265%, 87.786865%)" offset="0.960938"/><stop stop-opacity="1" stop-color="rgb(16.169739%, 66.259766%, 87.870789%)" offset="0.964844"/><stop stop-opacity="1" stop-color="rgb(15.853882%, 66.348267%, 87.954712%)" offset="0.96875"/><stop stop-opacity="1" stop-color="rgb(15.538025%, 66.436768%, 88.038635%)" offset="0.972656"/><stop stop-opacity="1" stop-color="rgb(15.222168%, 66.525269%, 88.124084%)" offset="0.976562"/><stop stop-opacity="1" stop-color="rgb(14.906311%, 66.61377%, 88.208008%)" offset="0.980469"/><stop stop-opacity="1" stop-color="rgb(14.59198%, 66.703796%, 88.291931%)" offset="0.984375"/><stop stop-opacity="1" stop-color="rgb(14.276123%, 66.792297%, 88.375854%)" offset="0.988281"/><stop stop-opacity="1" stop-color="rgb(13.960266%, 66.880798%, 88.461304%)" offset="0.992188"/><stop stop-opacity="1" stop-color="rgb(13.644409%, 66.969299%, 88.545227%)" offset="0.996094"/><stop stop-opacity="1" stop-color="rgb(13.330078%, 67.059326%, 88.62915%)" offset="1"/></linearGradient></defs><g clip-path="url(#6a5a8296be)"><rect x="-81" fill="url(#d804c00f33)" width="972" y="-80.999999" height="971.999992"/></g><path fill="#ffffff" d="M 439.304688 613.695312 C 416.433594 613.695312 395.46875 600.351562 375.457031 573.671875 C 374.507812 572.71875 363.070312 552.707031 361.164062 492.671875 C 361.164062 492.671875 361.164062 492.671875 361.164062 491.71875 L 362.117188 445.023438 C 362.117188 442.164062 364.023438 439.304688 367.835938 439.304688 C 370.695312 439.304688 373.554688 442.164062 373.554688 445.023438 L 372.601562 491.71875 C 374.507812 546.035156 384.035156 565.09375 384.988281 567.953125 C 402.140625 590.824219 420.246094 602.257812 439.304688 602.257812 C 483.140625 602.257812 526.976562 543.175781 558.421875 500.292969 C 565.09375 491.71875 571.765625 483.140625 577.480469 476.46875 C 627.988281 411.671875 643.234375 310.660156 611.789062 242.046875 C 598.445312 212.507812 570.8125 176.292969 513.636719 172.480469 C 472.660156 170.578125 439.304688 180.105469 414.53125 202.023438 C 377.363281 236.328125 374.507812 286.835938 374.507812 288.742188 L 374.507812 305.894531 C 374.507812 308.753906 371.648438 311.613281 368.789062 311.613281 C 364.976562 311.613281 363.070312 308.753906 363.070312 305.894531 L 363.070312 288.742188 C 363.070312 285.882812 365.929688 231.566406 406.90625 194.398438 C 433.589844 169.625 469.800781 159.140625 514.589844 161.046875 C 540.316406 162.953125 562.234375 170.578125 581.292969 184.871094 C 598.445312 197.257812 612.742188 215.363281 622.269531 237.28125 C 655.625 309.707031 639.421875 415.480469 586.058594 483.140625 C 580.339844 490.765625 574.625 498.386719 567.953125 506.964844 C 532.695312 554.613281 488.859375 613.695312 439.304688 613.695312 Z M 439.304688 613.695312 " fill-opacity="1" fill-rule="evenodd"/><path fill="#ffffff" d="M 514.589844 475.519531 C 513.636719 475.519531 511.730469 474.566406 510.777344 473.613281 C 508.871094 470.753906 508.871094 466.941406 511.730469 465.035156 C 544.128906 443.117188 567.953125 400.234375 573.671875 354.492188 C 577.480469 315.421875 568.90625 280.164062 546.988281 256.339844 C 519.351562 225.847656 479.328125 230.613281 453.601562 247.765625 C 435.492188 261.105469 418.339844 284.929688 432.636719 311.613281 C 448.835938 343.058594 475.519531 329.71875 477.421875 329.71875 C 479.328125 327.8125 483.140625 328.765625 485.046875 331.625 C 486 334.480469 485.046875 338.292969 482.1875 339.246094 C 482.1875 340.199219 444.070312 358.304688 422.152344 316.375 C 405.953125 285.882812 423.105469 255.386719 446.929688 238.234375 C 476.46875 218.222656 523.164062 213.457031 555.566406 248.71875 C 579.386719 275.398438 589.871094 313.519531 585.105469 355.445312 C 578.433594 405 553.660156 450.742188 518.398438 474.566406 C 517.445312 475.519531 516.492188 475.519531 514.589844 475.519531 Z M 514.589844 475.519531 " fill-opacity="1" fill-rule="evenodd"/><path fill="#ffffff" d="M 476.46875 440.257812 C 463.128906 440.257812 452.648438 435.492188 445.023438 427.871094 C 431.683594 413.578125 433.589844 390.707031 434.542969 387.847656 C 434.542969 385.941406 435.492188 379.269531 442.164062 373.554688 C 450.742188 364.976562 466.941406 363.070312 488.859375 365.929688 C 492.671875 366.882812 494.578125 369.742188 493.625 372.601562 C 493.625 375.457031 490.765625 377.363281 487.90625 377.363281 C 463.128906 373.554688 453.601562 379.269531 449.789062 382.128906 C 445.976562 384.988281 445.976562 388.800781 445.976562 388.800781 C 445.976562 389.753906 443.117188 408.8125 453.601562 420.246094 C 459.316406 426.917969 469.800781 428.824219 482.1875 427.871094 C 495.53125 426.917969 507.917969 417.386719 516.492188 400.234375 C 524.117188 384.035156 528.882812 363.070312 527.929688 344.011719 C 526.976562 330.671875 520.304688 286.835938 475.519531 288.742188 C 472.660156 288.742188 469.800781 285.882812 469.800781 283.023438 C 469.800781 280.164062 472.660156 277.304688 475.519531 277.304688 C 511.730469 275.398438 536.507812 301.128906 539.363281 344.011719 C 540.316406 364.976562 535.554688 387.847656 526.023438 405.953125 C 515.542969 425.964844 500.292969 438.351562 483.140625 439.304688 C 481.234375 439.304688 478.375 440.257812 476.46875 440.257812 Z M 476.46875 440.257812 " fill-opacity="1" fill-rule="evenodd"/><path fill="#ffffff" d="M 438.351562 570.8125 C 435.492188 570.8125 431.683594 570.8125 428.824219 569.859375 C 411.671875 566.046875 400.234375 551.753906 394.519531 527.929688 C 391.660156 515.542969 389.753906 500.292969 388.800781 482.1875 C 388.800781 479.328125 391.660156 476.46875 394.519531 476.46875 C 397.375 476.46875 400.234375 479.328125 400.234375 482.1875 C 401.1875 504.105469 403.09375 517.445312 405 525.070312 C 410.71875 545.082031 419.292969 556.519531 431.683594 558.421875 C 455.507812 564.140625 491.71875 538.410156 512.683594 511.730469 C 514.589844 508.871094 518.398438 508.871094 521.257812 510.777344 C 523.164062 512.683594 524.117188 515.542969 522.210938 518.398438 C 504.105469 540.316406 468.847656 570.8125 438.351562 570.8125 Z M 438.351562 570.8125 " fill-opacity="1" fill-rule="evenodd"/><path fill="#ffffff" d="M 273.492188 648.953125 L 240.140625 648.953125 C 220.128906 648.953125 203.929688 632.753906 203.929688 612.742188 L 203.929688 346.871094 C 203.929688 318.28125 227.753906 294.457031 256.339844 294.457031 C 285.882812 294.457031 309.707031 318.28125 309.707031 346.871094 L 309.707031 612.742188 C 309.707031 632.753906 293.507812 648.953125 273.492188 648.953125 Z M 256.339844 305.894531 C 233.46875 305.894531 215.363281 324 215.363281 346.871094 L 215.363281 612.742188 C 215.363281 626.082031 225.847656 637.519531 240.140625 637.519531 L 273.492188 637.519531 C 287.789062 637.519531 298.269531 626.082031 298.269531 612.742188 L 298.269531 346.871094 C 298.269531 324 280.164062 305.894531 256.339844 305.894531 Z M 256.339844 305.894531 " fill-opacity="1" fill-rule="evenodd"/><path fill="#ffffff" d="M 321.140625 462.175781 C 315.421875 462.175781 309.707031 462.175781 303.035156 461.222656 C 300.175781 461.222656 298.269531 458.363281 298.269531 454.554688 C 299.222656 451.695312 302.082031 449.789062 304.941406 449.789062 C 347.824219 455.507812 368.789062 437.398438 368.789062 437.398438 C 368.789062 437.398438 368.789062 437.398438 368.789062 436.445312 C 400.234375 413.578125 399.28125 379.269531 398.328125 368.789062 C 393.566406 331.625 342.105469 280.164062 303.988281 265.871094 C 234.421875 245.859375 202.976562 286.835938 193.445312 305.894531 C 182.011719 326.859375 178.199219 356.398438 185.824219 378.316406 C 190.589844 393.566406 199.164062 405 211.554688 411.671875 C 214.410156 412.625 216.316406 416.433594 214.410156 419.292969 C 213.457031 422.152344 209.648438 423.105469 206.789062 422.152344 C 191.542969 414.53125 180.105469 400.234375 174.386719 382.128906 C 166.765625 356.398438 170.578125 324 182.964844 300.175781 C 188.683594 291.601562 200.117188 273.492188 220.128906 262.058594 C 244.90625 247.765625 273.492188 245.859375 306.847656 255.386719 C 306.847656 255.386719 307.800781 255.386719 307.800781 255.386719 C 327.8125 263.011719 351.636719 279.210938 371.648438 300.175781 C 384.035156 313.519531 405.953125 340.199219 409.765625 367.835938 C 410.71875 379.269531 412.625 418.339844 376.410156 445.976562 C 373.554688 447.882812 355.445312 462.175781 321.140625 462.175781 Z M 321.140625 462.175781 " fill-opacity="1" fill-rule="evenodd"/><path fill="#ffffff" d="M 263.964844 610.835938 L 249.671875 610.835938 C 246.8125 610.835938 243.953125 607.976562 243.953125 605.117188 C 243.953125 602.257812 246.8125 599.398438 249.671875 599.398438 L 263.964844 599.398438 C 266.824219 599.398438 269.683594 602.257812 269.683594 605.117188 C 269.683594 607.976562 266.824219 610.835938 263.964844 610.835938 Z M 263.964844 610.835938 " fill-opacity="1" fill-rule="evenodd"/><path fill="#ffffff" d="M 256.339844 553.660156 C 253.480469 553.660156 250.625 551.753906 250.625 547.941406 L 250.625 371.648438 C 250.625 368.789062 253.480469 365.929688 256.339844 365.929688 C 260.152344 365.929688 262.058594 368.789062 262.058594 371.648438 L 262.058594 547.941406 C 262.058594 551.753906 260.152344 553.660156 256.339844 553.660156 Z M 256.339844 553.660156 " fill-opacity="1" fill-rule="evenodd"/></svg>